<svg width="72" height="104" viewBox="0 0 72 104" fill="none" xmlns="http://www.w3.org/2000/svg">
<path d="M1.22753 26.2444H21.096V28.5129C20.1052 28.9301 19.1143 29.2951 18.1235 29.608C17.1327 29.9209 16.1419 30.2077 15.1511 30.4684V62.4613C15.1511 65.2252 15.4379 67.5458 16.0115 69.4231C16.6373 71.2483 17.5238 72.7345 18.6711 73.8818C19.8184 74.9769 21.2264 75.7852 22.8951 76.3067C24.616 76.776 26.5455 77.0107 28.6835 77.0107C32.8032 77.0107 36.0104 75.8895 38.3049 73.6471C40.5994 71.3526 41.7466 67.5979 41.7466 62.3831V31.1724C40.5472 30.7553 39.4261 30.3381 38.3831 29.9209C37.3401 29.4516 36.4015 28.9822 35.5671 28.5129V26.2444H52.2284V28.5129C51.2376 29.0865 50.2207 29.608 49.1778 30.0773C48.1869 30.5467 47.1701 30.9117 46.1271 31.1724V62.5396C46.1271 65.877 45.6838 68.7452 44.7973 71.144C43.9108 73.5428 42.6592 75.5244 41.0426 77.0889C39.4782 78.6533 37.5487 79.8267 35.2542 80.6089C33.0118 81.339 30.5087 81.704 27.7449 81.704C21.2263 81.704 16.2462 80.2439 12.8044 77.3236C9.36265 74.3511 7.64176 69.8142 7.64176 63.7129V30.4684C5.50368 30.1556 3.36561 29.5037 1.22753 28.5129V26.2444Z" fill="#3B82F6"/>
<path d="M69.1231 26.2444C69.071 28.3304 68.9667 30.4424 68.8102 32.5804C68.7059 34.6664 68.5234 36.7784 68.2627 38.9164H66.2289L63.0218 30.312H45.9693V51.0409H58.7196L61.7702 45.2524H63.7258C64.0387 50.4151 64.0387 55.6821 63.7258 61.0533H61.7702L58.7196 55.1084H45.9693V76.9324H63.9605L67.7933 67.5458H69.7489C70.1139 69.736 70.3747 71.9523 70.5311 74.1947C70.6876 76.437 70.7136 78.7055 70.6093 81H32.0458V78.7316C33.871 77.8972 36.009 77.2714 38.46 76.8542V30.4684C37.417 30.2598 36.348 29.9991 35.2529 29.6862C34.1578 29.3212 33.0888 28.9301 32.0458 28.5129V26.2444H69.1231Z" fill="#3B82F6"/>
</svg>
